<svg width="18" height="11" viewBox="0 0 18 11" fill="none" xmlns="http://www.w3.org/2000/svg">
<path fill-rule="evenodd" clip-rule="evenodd" d="M6.35799 1.71579C6.40945 2.5848 7.15565 3.24755 8.02465 3.19608C8.89366 3.14461 9.55641 2.39842 9.50494 1.52941C9.45347 0.660404 8.70728 -0.0023434 7.83827 0.0491239C6.96927 0.100591 6.30652 0.846784 6.35799 1.71579ZM12.9896 5.10941C12.0117 5.16733 11.172 4.42151 11.114 3.44356C11.0561 2.46562 11.8019 1.62589 12.7799 1.56797C13.7578 1.51005 14.5976 2.25588 14.6555 3.23382C14.7134 4.21176 13.9676 5.0515 12.9896 5.10941ZM13.2055 8.17071C13.2699 9.25723 14.2028 10.0859 15.2893 10.0215C16.3759 9.95717 17.2045 9.0242 17.1402 7.93768C17.0758 6.85115 16.1428 6.02252 15.0563 6.08687C13.9698 6.15122 13.1412 7.08419 13.2055 8.17071ZM0.32022 8.93384C0.358826 9.58569 0.918546 10.0828 1.57039 10.0442C2.22223 10.0056 2.71936 9.44588 2.68076 8.79404C2.64215 8.1422 2.08243 7.64507 1.43059 7.68367C0.778743 7.72228 0.281614 8.282 0.32022 8.93384ZM2.18487 2.99553C2.69111 2.42555 3.56179 2.37398 4.13177 2.88022C4.7075 3.38613 4.75399 4.25775 4.24708 4.82712C3.74084 5.3971 2.87016 5.44867 2.30018 4.94243C1.73024 4.43683 1.67859 3.56487 2.18487 2.99553Z" fill="#ABDA02"/>
</svg>
