<svg width="15" height="18" viewBox="0 0 15 18" fill="none" xmlns="http://www.w3.org/2000/svg">
  <path class="arrow" d="M13.5886 11.4226L8.144 16.8672C7.53731 17.4747 6.55106 17.4747 5.94438 16.8672L0.499785 11.4226C-0.107676 10.8152 -0.107676 9.83047 0.499785 9.22301C1.10647 8.61554 2.09272 8.61554 2.6994 9.22301L5.48859 12.0122L5.48859 2.49184C5.48859 1.63315 6.1855 0.936245 7.04419 0.936245C7.90288 0.936245 8.59979 1.63315 8.59979 2.49184V12.0122L11.389 9.22301C11.6923 8.91889 12.0906 8.76722 12.4888 8.76722C12.887 8.76722 13.2853 8.91889 13.5886 9.22301C14.1961 9.83047 14.1961 10.8152 13.5886 11.4226Z" fill="#ABDA02"/>
</svg>
