<svg width="675" height="362" viewBox="0 0 675 362" fill="none" xmlns="http://www.w3.org/2000/svg">
<mask id="mask0" mask-type="alpha" maskUnits="userSpaceOnUse" x="0" y="-203" width="675" height="565">
<ellipse opacity="0.2" rx="337.5" ry="282.5" transform="matrix(1 0 0 -1 337.5 79.5)" fill="#6B47AB"/>
</mask>
<g mask="url(#mask0)">
<path fill-rule="evenodd" clip-rule="evenodd" d="M650.692 259.423H658.331C663.673 259.423 667.999 263.748 667.999 269.091C667.999 274.428 663.673 278.759 658.331 278.759H17.6693C12.3318 278.759 8.0014 274.428 8.0014 269.091C8.0014 263.748 12.3318 259.423 17.6693 259.423H25.308V204.628C23.027 204.9 20.7359 205.126 18.4448 205.308C18.1829 205.333 17.9211 205.343 17.6593 205.343C12.6742 205.343 8.43948 201.511 8.03161 196.45C7.60361 191.128 11.5715 186.465 16.8939 186.037C22.2364 185.609 27.5185 184.929 32.7301 184.018C33.0826 183.932 33.4452 183.867 33.8178 183.822C54.8153 180.005 74.6144 172.321 92.3742 161.278C93.0842 160.664 93.8848 160.155 94.756 159.773C113.523 147.658 129.923 131.741 142.934 112.621V56.8244C142.934 48.6519 149.586 42.0002 157.759 42.0002H173.61C181.782 42.0002 188.434 48.6519 188.434 56.8244V96.3974C251.462 215.806 423.747 217.307 487.566 96.3974V56.8244C487.566 48.6519 494.218 42.0002 502.39 42.0002H518.241C526.414 42.0002 533.066 48.6519 533.066 56.8244V112.621C546.077 131.741 562.477 147.658 581.244 159.773C582.11 160.155 582.911 160.664 583.626 161.278C601.386 172.321 621.185 180.005 642.187 183.822C642.555 183.867 642.917 183.932 643.275 184.018C648.481 184.929 653.764 185.609 659.106 186.037C664.429 186.465 668.396 191.128 667.968 196.45C667.561 201.511 663.326 205.343 658.341 205.343C658.079 205.343 657.817 205.333 657.555 205.308C655.264 205.126 652.973 204.9 650.692 204.628V259.423ZM586.989 259.423H631.356V201.304C615.968 197.825 601.018 192.417 586.989 185.242V259.423ZM567.654 259.423V173.821C554.985 165.266 543.338 155.14 533.066 143.79V259.423H567.654ZM487.566 259.423V132.174C475.028 148.589 460.022 162.653 443.214 173.967V259.423H487.566ZM379.507 259.423H423.878V185.357C409.92 192.488 395.026 197.88 379.507 201.355V259.423ZM360.171 259.423V204.633C345.125 206.39 330.175 206.31 315.829 204.633V259.423H360.171ZM252.122 259.423H296.493V201.355C280.974 197.885 266.085 192.488 252.122 185.357V259.423ZM232.786 259.423V173.967C215.978 162.653 200.972 148.589 188.434 132.174V259.423H232.786ZM142.934 259.423V143.79C132.662 155.14 121.015 165.266 108.351 173.821V259.423H142.934ZM89.0156 185.242C74.987 192.417 60.032 197.825 44.6439 201.304V259.423H89.0156V185.242ZM162.27 115.894V259.423H169.098V99.0662C169.093 98.8597 169.093 98.6482 169.098 98.4418V61.3361H162.27V115.22C162.28 115.441 162.28 115.668 162.27 115.894ZM506.902 99.0712V259.423H513.73V115.899C513.725 115.668 513.725 115.446 513.73 115.22V61.3361H506.902V98.4418C506.912 98.6533 506.912 98.8597 506.902 99.0712ZM253.567 297.656H17.6694C12.3319 297.656 8.00143 301.982 8.00143 307.324C8.00143 312.662 12.3319 316.992 17.6694 316.992H133.941V354.214L118.024 371.188C116.348 372.98 115.411 375.342 115.411 377.799V434.09C115.411 439.427 119.742 443.758 125.079 443.758H206.29C211.632 443.758 215.958 439.427 215.958 434.09V423.133C215.958 417.79 211.632 413.465 206.29 413.465C200.952 413.465 196.622 417.79 196.622 423.133V424.422H134.747V381.621L150.664 364.647C152.346 362.854 153.277 360.493 153.277 358.035V316.992H178.091V358.035C178.091 360.493 179.028 362.854 180.705 364.647L196.622 381.621V384.461C196.622 389.799 200.952 394.129 206.29 394.129C211.632 394.129 215.958 389.799 215.958 384.461C215.86 383.255 215.9 382.043 215.941 380.835V380.835C216.052 377.495 216.162 374.195 213.344 371.188L197.427 354.214V316.992H253.567C258.909 316.992 263.235 312.662 263.235 307.324C263.235 301.982 258.909 297.656 253.567 297.656ZM658.33 297.656H292.238C286.901 297.656 282.57 301.982 282.57 307.324C282.57 312.662 286.901 316.992 292.238 316.992H478.572V354.214L462.656 371.188C460.979 372.98 460.042 375.342 460.042 377.799V434.09C460.042 439.427 464.373 443.758 469.71 443.758H550.921C556.263 443.758 560.589 439.427 560.589 434.09V423.133C560.589 417.79 556.263 413.465 550.921 413.465C545.583 413.465 541.253 417.79 541.253 423.133V424.422H479.378V381.621L495.295 364.647C496.977 362.854 497.908 360.493 497.908 358.035V316.992H522.723V358.035C522.723 360.493 523.659 362.854 525.336 364.647L541.253 381.621V384.461C541.253 389.799 545.583 394.129 550.921 394.129C556.263 394.129 560.589 389.799 560.589 384.461C560.491 383.255 560.531 382.042 560.572 380.835C560.683 377.495 560.793 374.195 557.975 371.188L542.058 354.214V316.992H658.33C663.673 316.992 667.998 312.662 667.998 307.324C667.998 301.982 663.673 297.656 658.33 297.656Z" fill="black"/>
</g>
</svg>
