<svg width="24" height="24" viewBox="0 0 24 24" fill="none" xmlns="http://www.w3.org/2000/svg">
<path fill-rule="evenodd" clip-rule="evenodd" d="M12 5.424L7.33901 10.085L7.3391 10.0848L4.6272 7.3728L12 0L19.3752 7.37501L16.6632 10.087L12 5.424ZM2.7121 9.28752L0 12L2.7119 14.7115L5.424 11.9994L2.7121 9.28752ZM12 18.576L7.33901 13.9153L4.62336 16.6234L4.6272 16.6272L12 24L19.3752 16.6251L19.3765 16.6236L16.6631 13.9131L12 18.576ZM21.2881 9.28906L18.576 12.0012L21.288 14.7131L24 12.001L21.2881 9.28906ZM14.7516 11.9985H14.7506L14.7531 11.9999L14.7518 12.0014L11.9999 14.7533L9.25032 12.0034L9.24648 11.9995L9.25032 11.9957L9.73224 11.5137L9.9659 11.2799L11.9999 9.24657L14.7516 11.9985Z" fill="#F3BA2F"/>
</svg>
