<svg width="20" height="20" viewBox="0 0 20 20" fill="none" xmlns="http://www.w3.org/2000/svg">
<mask id="mask0" mask-type="alpha" maskUnits="userSpaceOnUse" x="0" y="0" width="20" height="20">
<path fill-rule="evenodd" clip-rule="evenodd" d="M10.0009 0C7.28508 0 6.94424 0.011875 5.87756 0.0604165C4.81297 0.109166 4.08629 0.277708 3.45045 0.524998C2.79274 0.780414 2.23482 1.12208 1.67898 1.67812C1.12272 2.23395 0.78105 2.79187 0.524797 3.44937C0.276878 4.08541 0.108126 4.81228 0.060209 5.87644C0.0125001 6.94311 0 7.28415 0 9.99997C0 12.7158 0.0120835 13.0556 0.0604173 14.1223C0.109376 15.1868 0.27792 15.9135 0.525006 16.5493C0.780633 17.207 1.1223 17.7649 1.67835 18.3208C2.23398 18.877 2.7919 19.2195 3.4492 19.4749C4.08546 19.7222 4.81234 19.8908 5.87673 19.9395C6.94341 19.9881 7.28403 19.9999 9.99969 19.9999C12.7158 19.9999 13.0556 19.9881 14.1222 19.9395C15.1868 19.8908 15.9143 19.7222 16.5506 19.4749C17.2081 19.2195 17.7652 18.877 18.3208 18.3208C18.8771 17.7649 19.2187 17.207 19.475 16.5495C19.7208 15.9135 19.8896 15.1866 19.9396 14.1225C19.9875 13.0558 20 12.7158 20 9.99997C20 7.28415 19.9875 6.94331 19.9396 5.87665C19.8896 4.81207 19.7208 4.0854 19.475 3.44957C19.2187 2.79187 18.8771 2.23395 18.3208 1.67812C17.7646 1.12187 17.2083 0.780206 16.55 0.524998C15.9125 0.277708 15.1854 0.109166 14.1208 0.0604165C13.0541 0.011875 12.7145 0 9.99781 0L10.0009 0Z" fill="#230057"/>
</mask>
<g mask="url(#mask0)">
<path d="M-10.3562 -0.178116V20.1781H30.3563V-0.178116H-10.3562Z" fill="#012169"/>
<path d="M-10.3562 -0.178116L30.3563 20.1781L-10.3562 -0.178116ZM30.3563 -0.178116L-10.3562 20.1781L30.3563 -0.178116Z" fill="black"/>
<path d="M29.447 22L9.99999 12.2765L-9.44701 22L-11.2655 18.3562L5.44697 10L-11.2655 1.64377L-9.44701 -2L9.99999 7.7235L29.447 -2L31.2655 1.64377L14.553 10L31.2655 18.3562L29.447 22Z" fill="white"/>
<path d="M-10.3563 -0.178123L30.3562 20.1781L-10.3563 -0.178123ZM30.3562 -0.178123L-10.3563 20.1781L30.3562 -0.178123Z" fill="black"/>
<path d="M29.7489 21.3927L10 11.5165L-9.74891 21.3927L-10.9635 18.9635L6.96693 10L-10.9635 1.03647L-9.74891 -1.39271L10 8.48346L29.7489 -1.39271L30.9635 1.03647L13.0331 10L30.9635 18.9635L29.7489 21.3927Z" fill="#C8102E"/>
<path d="M10 -0.178116V20.1781V-0.178116ZM-10.3562 10H30.3563H-10.3562Z" fill="black"/>
<path d="M13.3927 20.1781H6.60733V13.3927H-10.3562V6.6073H6.60733V-0.178116H13.3927V6.6073H30.3563V13.3927H13.3927V20.1781Z" fill="white"/>
<path d="M10 -0.178116V20.1781V-0.178116ZM-10.3562 10H30.3563H-10.3562Z" fill="black"/>
<path d="M12.0357 20.1781H7.96441V12.0356H-10.3562V7.96438H7.96441V-0.178116H12.0357V7.96438H30.3563V12.0356H12.0357V20.1781Z" fill="#C8102E"/>
</g>
</svg>
