<svg width="16" height="25" viewBox="0 0 16 25" fill="none" xmlns="http://www.w3.org/2000/svg">
<path d="M10.2084 8.32888C10.2084 4.88873 8.55012 1.92492 7.27991 0.954621C7.27991 0.954621 7.1917 0.901696 7.1917 1.04283C7.08585 7.69378 3.71628 9.51088 1.84625 11.9278C-2.4407 17.5379 1.54634 23.6772 5.60394 24.8063C7.87973 25.4414 5.07469 23.6772 4.72186 19.9724C4.29845 15.4738 10.2084 12.0513 10.2084 8.32888Z" fill="#282E5B"/>
<path d="M12.4313 10.6047C12.4137 10.587 12.3784 10.587 12.3431 10.6047C12.3431 10.6047 12.3431 10.6047 12.3255 10.6223C12.2549 11.4515 11.3375 13.2509 10.1908 14.8916C6.29197 20.4664 8.51484 23.148 9.7674 24.5946C10.4907 25.4414 9.7674 24.5946 11.5845 23.7301C11.7256 23.6596 15.1129 21.8601 15.4833 17.7849C15.8538 13.8155 13.331 11.328 12.4313 10.6047Z" fill="#059BDC"/>
</svg>
