<svg width="140" height="24" viewBox="0 0 140 24" fill="none" xmlns="http://www.w3.org/2000/svg">
<path d="M46.8352 6.99157C46.4561 6.3598 45.9507 5.85438 45.2768 5.51744C44.6029 5.13838 43.8869 4.96991 43.1709 4.96991C41.3599 4.96991 39.9278 5.60167 38.8328 6.90732C37.7377 8.21298 37.2323 9.77136 37.2323 11.6667C37.2323 13.562 37.7798 15.1625 38.8328 16.426C39.9278 17.6895 41.3599 18.3634 43.1709 18.3634C43.8869 18.3634 44.6029 18.1949 45.2768 17.8159C45.9507 17.4368 46.4561 16.9735 46.8352 16.3418V17.9844H50.6258V0.0421076H46.8352V6.99157ZM46.8352 13.562C46.2034 14.4043 45.3611 14.7834 44.3502 14.7834C43.5079 14.7834 42.7498 14.4886 42.1601 13.8568C41.5283 13.225 41.2335 12.509 41.2335 11.6245C41.2335 10.7822 41.5283 10.0662 42.1601 9.4344C42.7919 8.80263 43.5079 8.50783 44.3502 8.50783C45.3611 8.50783 46.2034 8.92899 46.8352 9.72923V13.562ZM58.7967 4.9278C56.9435 4.9278 55.3851 5.60167 54.1216 6.90732C52.8159 8.2551 52.1842 9.85559 52.1842 11.7088C52.1842 13.562 52.8581 15.1203 54.1637 16.3839C55.4694 17.6474 57.0698 18.2792 58.923 18.2792C61.1553 18.2792 62.9663 17.6895 64.3141 16.5102L63.0506 14.2359C62.0398 14.9097 60.8183 15.2467 59.4706 15.2467C57.7016 15.2467 56.5223 14.3622 56.0169 12.6354H65.1986C65.2829 12.2984 65.2828 11.9194 65.2828 11.4561C65.2828 9.43442 64.6932 7.83393 63.5139 6.65463C62.3346 5.51744 60.7762 4.9278 58.7967 4.9278ZM55.8905 10.361C56.059 9.60288 56.396 9.05535 56.9435 8.63418C57.491 8.213 58.0807 8.00241 58.7967 8.00241C59.5969 8.00241 60.2287 8.213 60.7762 8.63418C61.2816 9.05535 61.6186 9.64499 61.787 10.361H55.8905ZM77.5813 8.71842C78.3815 8.33935 79.0133 7.79182 79.5187 7.0337C80.0241 6.31769 80.2768 5.51745 80.2768 4.63297C80.2768 3.49579 79.8556 2.52707 79.0554 1.72682C78.2552 0.926584 77.2022 0.463282 75.9808 0.379046C75.0542 0.29481 74.3803 0.294831 73.8749 0.294831H67.3045V17.9844H75.7702C77.2443 17.9844 78.5079 17.521 79.4766 16.5944C80.4453 15.6679 80.9507 14.5728 80.9507 13.225C80.9507 12.2142 80.6559 11.2876 80.0241 10.4873C79.3923 9.64499 78.5921 9.05536 77.5813 8.71842ZM71.6005 3.62213H74.2118C74.7173 3.62213 75.1805 3.7906 75.6017 4.16966C75.9808 4.54872 76.1914 4.9699 76.1914 5.51744C76.1914 6.06497 75.9808 6.52827 75.6017 6.86522C75.2227 7.24428 74.7594 7.41274 74.2118 7.41274H71.6005V3.62213ZM75.9387 14.0253C75.5175 14.4043 75.0121 14.6149 74.4224 14.6149H71.6005V10.5295H74.4224C75.0121 10.5295 75.5175 10.7401 75.9387 11.1191C76.3599 11.4982 76.5705 12.0036 76.5705 12.5932C76.5705 13.1408 76.3599 13.6462 75.9387 14.0253ZM86.5103 7.66547V5.30685H82.7197V17.9422H86.5103V11.3297C86.763 10.4031 87.2684 9.68711 88.0265 9.22381C88.7846 8.76051 89.627 8.50783 90.5536 8.50783V4.96991C88.9952 5.01203 87.6475 5.89651 86.5103 7.66547ZM93.5861 0C93.0386 0 92.5753 0.210574 92.1541 0.589636C91.7329 0.968697 91.5644 1.47413 91.5644 1.97955C91.5644 2.52708 91.775 3.03248 92.1541 3.41154C92.5331 3.7906 93.0386 4.0012 93.5861 4.0012C94.1336 4.0012 94.5969 3.7906 94.976 3.41154C95.355 3.03248 95.5656 2.52708 95.5656 1.97955C95.5656 1.43201 95.355 0.968697 94.976 0.589636C94.5969 0.210574 94.1336 0 93.5861 0ZM91.6908 17.9422H95.4814V5.30685H91.6908V17.9422ZM106.643 6.99157C106.264 6.3598 105.758 5.85438 105.084 5.51744C104.41 5.13838 103.694 4.96991 102.978 4.96991C101.167 4.96991 99.7353 5.60167 98.6402 6.90732C97.5452 8.21298 97.0398 9.77136 97.0398 11.6667C97.0398 13.562 97.5873 15.1625 98.6402 16.426C99.7353 17.6895 101.167 18.3634 102.978 18.3634C103.694 18.3634 104.41 18.1949 105.084 17.8159C105.758 17.4368 106.264 16.9735 106.643 16.3418V17.9844H110.433V0.0421076H106.643V6.99157ZM106.643 13.562C106.011 14.4043 105.169 14.7834 104.158 14.7834C103.315 14.7834 102.557 14.4886 101.968 13.8568C101.336 13.225 101.041 12.509 101.041 11.6245C101.041 10.7822 101.336 10.0662 101.968 9.4344C102.599 8.80263 103.315 8.50783 104.158 8.50783C105.169 8.50783 106.011 8.92899 106.643 9.72923V13.562ZM121.552 6.99157C121.173 6.3598 120.668 5.85438 119.994 5.51744C119.32 5.13838 118.604 4.96991 117.888 4.96991C116.077 4.96991 114.645 5.60167 113.55 6.90732C112.455 8.21298 111.95 9.77136 111.95 11.6667C111.95 13.562 112.497 15.1625 113.55 16.426C114.645 17.6895 116.077 18.3634 117.888 18.3634C118.604 18.3634 119.32 18.1949 119.994 17.8159C120.668 17.4368 121.173 16.9735 121.552 16.3418V17.7738C121.552 18.6582 121.258 19.3742 120.71 19.8375C120.163 20.3429 119.489 20.5535 118.73 20.5535C117.214 20.5535 115.698 20.1324 114.266 19.3321L113.002 21.6907C114.771 22.8279 116.709 23.4176 118.857 23.4176C119.699 23.4176 120.457 23.3333 121.173 23.1227C121.889 22.9121 122.563 22.6173 123.237 22.1962C123.869 21.775 124.416 21.1853 124.795 20.4272C125.175 19.6691 125.385 18.7425 125.385 17.6895V5.26474H121.595V6.99157H121.552ZM121.552 13.562C120.921 14.4043 120.078 14.7834 119.067 14.7834C118.225 14.7834 117.467 14.4886 116.877 13.8568C116.246 13.225 115.951 12.509 115.951 11.6245C115.951 10.7822 116.246 10.0662 116.877 9.4344C117.509 8.80263 118.225 8.50783 119.067 8.50783C120.078 8.50783 120.921 8.92899 121.552 9.72923V13.562ZM140 11.4982C140 9.47653 139.41 7.87604 138.231 6.69673C137.052 5.51743 135.493 4.9278 133.514 4.9278C131.661 4.9278 130.102 5.60167 128.839 6.90732C127.533 8.2551 126.901 9.85559 126.901 11.7088C126.901 13.562 127.575 15.1203 128.881 16.3839C130.187 17.6474 131.787 18.2792 133.64 18.2792C135.872 18.2792 137.684 17.6895 139.031 16.5102L137.768 14.2359C136.757 14.9097 135.536 15.2467 134.188 15.2467C132.419 15.2467 131.24 14.3622 130.734 12.6354H139.916C140 12.3406 140 11.9615 140 11.4982ZM130.608 10.361C130.776 9.60288 131.113 9.05535 131.661 8.63418C132.208 8.213 132.798 8.00241 133.514 8.00241C134.314 8.00241 134.946 8.213 135.493 8.63418C135.999 9.05535 136.336 9.64499 136.504 10.361H130.608Z" fill="white"/>
<path fill-rule="evenodd" clip-rule="evenodd" d="M0 17.6895H3.45366C3.45366 15.7942 3.95909 14.0252 4.84356 12.4669L1.85319 10.74C0.716002 12.8038 0 15.1624 0 17.6895ZM23.5439 7.96023C21.8592 6.27552 19.7533 5.01198 17.3526 4.38021L16.4681 7.70754C18.2371 8.17083 19.8375 9.13956 21.1011 10.4031L23.5439 7.96023ZM27.1239 14.1516L23.7966 15.0361C23.8387 15.1203 23.8387 15.2045 23.8387 15.2888C23.586 14.3201 23.2491 13.3513 22.7437 12.509L19.7533 14.2358C20.343 15.2466 20.6799 16.426 20.6799 17.6895H24.1336H27.5872C27.5872 16.4681 27.4188 15.2888 27.1239 14.1516Z" fill="#6410D6"/>
<path fill-rule="evenodd" clip-rule="evenodd" d="M25.9868 5.51746L23.544 7.96029L21.1012 10.4032C21.7329 11.0349 22.2805 11.7509 22.7438 12.5512L25.7341 10.8243L28.7245 9.09748C27.9664 7.74971 27.0398 6.57041 25.9868 5.51746ZM13.8147 0.463306C12.2985 0.463306 10.7823 0.673906 9.39237 1.05297L10.2768 4.38027C11.414 4.08544 12.5933 3.91698 13.8147 3.91698C16.3418 3.91698 18.7004 4.59088 20.7221 5.77018L22.4489 2.77979C19.8797 1.30566 16.9315 0.463306 13.8147 0.463306ZM30.4513 13.2672L27.124 14.1516C27.4188 15.2888 27.5873 16.4681 27.5873 17.6895H31.041C31.041 16.1733 30.8304 14.6571 30.4513 13.2672ZM3.45374 17.6895H6.90741C6.90741 13.8989 9.98202 10.7822 13.8147 10.7822C14.4465 10.7822 15.0362 10.8664 15.5837 11.0349L16.4682 7.70759C15.6258 7.49701 14.6992 7.37066 13.7726 7.37066C8.08671 7.37066 3.45374 11.9615 3.45374 17.6895Z" fill="#ABDA02"/>
</svg>
