<svg width="21" height="16" viewBox="0 0 21 16" fill="none" xmlns="http://www.w3.org/2000/svg">
<path d="M18.5979 1.88042L20.2105 0.337684V0H14.624L10.6425 9.90989L6.11284 0H0.255158V0.337684L2.13895 2.60547C2.32253 2.77305 2.41853 3.01811 2.3941 3.26484V12.1768C2.45221 12.4977 2.34779 12.8278 2.12211 13.0611L0 15.6328V15.9663H6.01684V15.6286L3.89474 13.0611C3.66484 12.8269 3.55621 12.5027 3.60253 12.1768V4.46821L8.88421 15.9705H9.49811L14.0396 4.46821V13.6312C14.0396 13.8728 14.0396 13.9225 13.8813 14.0808L12.2476 15.6615V16H20.1735V15.6623L18.5987 14.1204C18.4606 14.016 18.3891 13.8408 18.4185 13.6707V2.33011C18.3891 2.15916 18.4598 1.984 18.5979 1.88042Z" fill="white"/>
</svg>
