<svg width="24" height="19" viewBox="0 0 24 19" fill="none" xmlns="http://www.w3.org/2000/svg">
<path fill-rule="evenodd" clip-rule="evenodd" d="M3.89925 0.229295C4.0501 0.0844772 4.24923 0 4.45439 0H23.6066C23.9566 0 24.1315 0.422386 23.8841 0.669784L20.1008 4.45316C19.956 4.59797 19.7568 4.68245 19.5456 4.68245H0.393444C0.0434669 4.68245 -0.131522 4.26007 0.115876 4.01267L3.89925 0.229295ZM3.89924 14.3551C4.04405 14.2103 4.24318 14.1258 4.45437 14.1258H23.6066C23.9565 14.1258 24.1315 14.5482 23.8841 14.7956L20.1008 18.5789C19.9559 18.7238 19.7568 18.8082 19.5456 18.8082H0.393432C0.043455 18.8082 -0.131534 18.3859 0.115864 18.1385L3.89924 14.3551ZM19.5456 7.01765C19.7568 7.01765 19.9559 7.10213 20.1008 7.24695L23.8841 11.0303C24.1315 11.2777 23.9565 11.7001 23.6066 11.7001H4.45437C4.24318 11.7001 4.04405 11.6156 3.89924 11.4708L0.115864 7.68743C-0.131534 7.44004 0.043455 7.01765 0.393432 7.01765H19.5456Z" fill="url(#paint0_linear)"/>
<defs>
<linearGradient id="paint0_linear" x1="18.8607" y1="-3.78265" x2="5.60581" y2="21.6057" gradientUnits="userSpaceOnUse">
<stop stop-color="#00FFA3"/>
<stop offset="1" stop-color="#DC1FFF"/>
</linearGradient>
</defs>
</svg>
