<?xml version="1.0" encoding="UTF-8" standalone="no"?>
<svg
   xmlns:dc="http://purl.org/dc/elements/1.1/"
   xmlns:cc="http://creativecommons.org/ns#"
   xmlns:rdf="http://www.w3.org/1999/02/22-rdf-syntax-ns#"
   xmlns:svg="http://www.w3.org/2000/svg"
   xmlns="http://www.w3.org/2000/svg"
   xmlns:sodipodi="http://sodipodi.sourceforge.net/DTD/sodipodi-0.dtd"
   xmlns:inkscape="http://www.inkscape.org/namespaces/inkscape"
   inkscape:version="1.0 (4035a4f, 2020-05-01)"
   sodipodi:docname="some_cur_modal.svg"
   id="svg22"
   version="1.1"
   fill="none"
   viewBox="0 0 80 80"
   height="80"
   width="80">
  <metadata
     id="metadata28">
    <rdf:RDF>
      <cc:Work
         rdf:about="">
        <dc:format>image/svg+xml</dc:format>
        <dc:type
           rdf:resource="http://purl.org/dc/dcmitype/StillImage" />
        <dc:title></dc:title>
      </cc:Work>
    </rdf:RDF>
  </metadata>
  <defs
     id="defs26" />
  <sodipodi:namedview
     inkscape:current-layer="svg22"
     inkscape:window-maximized="0"
     inkscape:window-y="0"
     inkscape:window-x="0"
     inkscape:cy="40"
     inkscape:cx="40"
     inkscape:zoom="9.1875"
     showgrid="false"
     id="namedview24"
     inkscape:window-height="1050"
     inkscape:window-width="1680"
     inkscape:pageshadow="2"
     inkscape:pageopacity="0"
     guidetolerance="10"
     gridtolerance="10"
     objecttolerance="10"
     borderopacity="1"
     bordercolor="#666666"
     pagecolor="#ffffff" />
  <circle
     id="circle20"
     fill="#eeb73e"
     r="40"
     cy="40"
     cx="40" />
  <path
     style="stroke-width:0.999995"
     fill-rule="evenodd"
     clip-rule="evenodd"
     d="m 40.40136,30.823999 -6.21466,6.214701 1.3e-4,-3e-4 -3.61587,-3.616 9.8304,-9.8304 9.8336,9.83334 -3.616,3.61596 z m -12.38387,5.151401 -3.61613,3.6166 3.61587,3.615401 3.61613,-3.6162 z M 40.40136,48.360001 34.1867,42.1457 l -3.62086,3.6108 0.0051,0.0051 9.8304,9.8304 9.8336,-9.833201 0.0018,-0.0019 -3.6179,-3.614101 z m 12.3841,-12.382601 -3.6161,3.6161 3.616,3.6159 3.616,-3.6161 z m -8.7151,3.612599 h -0.0013 l 0.0033,0.0018 -0.0017,0.0021 -3.6693,3.669203 -3.666,-3.666501 -0.0052,-0.0053 0.0052,-0.005 0.6425,-0.642703 0.3116,-0.311698 2.7119,-2.711101 z"
     fill="#ffffff"
     id="path10" />
</svg>
