<svg width="20" height="17" viewBox="0 0 20 17" fill="none" xmlns="http://www.w3.org/2000/svg">
<path d="M18.73 6.80818C17.9424 4.10212 17.0542 2.70391 17.0398 2.67882C16.9892 2.61703 15.7341 1.11501 12.709 0.00402832L12.3092 1.09236C13.7484 1.62091 14.7694 2.26571 15.3309 2.68234C13.6545 2.18173 11.6602 1.87514 9.89391 1.87514C8.12762 1.87514 6.13334 2.18173 4.45694 2.68234C5.01842 2.26575 6.03942 1.62091 7.47856 1.09236L7.07882 0.00402832C4.0538 1.11501 2.79866 2.61703 2.74803 2.67882C2.7337 2.70391 1.84545 4.10212 1.05788 6.80818C0.298827 9.416 0.0104736 13.0949 0 13.2424C0.0676342 13.3481 1.62322 16.004 5.86264 16.004L6.93722 14.448C5.73333 14.1283 4.58536 13.6128 3.53452 12.9133L4.17697 11.9482C5.87227 13.0766 7.84916 13.6731 9.89391 13.6731C11.9387 13.6731 13.9156 13.0766 15.6109 11.9482L16.2533 12.9133C15.2025 13.6128 14.0545 14.1283 12.8506 14.448L13.9252 16.004C18.1646 16.004 19.7202 13.3481 19.7878 13.2424C19.7773 13.0949 19.489 9.416 18.73 6.80818ZM7.21336 9.84136H6.05391V7.90895H7.21336V9.84136ZM13.7339 9.84136H12.5745V7.90895H13.7339V9.84136Z" fill="white"/>
</svg>
